<svg viewBox="0 0 48 48" xmlns="http://www.w3.org/2000/svg"><path d="M24 0C10.746 0 0 10.745 0 24s10.745 24 24 24 24-10.745 24-24S37.256 0 24 0zm.029 43.844c-11.023 0-19.959-8.936-19.959-19.959S13.006 3.926 24.029 3.926s19.959 8.936 19.959 19.959-8.935 19.959-19.959 19.959z"/><circle cx="16.301" cy="32.13" r="2.387"/><circle cx="28.646" cy="32.13" r="2.387"/><path d="M34.98 13.484h-2.156c-1.557 0-1.736 1.238-1.738 1.249l-.047.427v-.002l-.514 2.26c-.113.34-.455.885-1.514.885H11.27l3.128 10.041h16.956L32.857 20l.434-2.039.029-.135c.086-.358.463-1.363 2.02-1.389h.191c.385-.02 1.223-.189 1.199-1.313v-.188c0-1.498-1.75-1.452-1.75-1.452z"/></svg>