<svg xmlns="http://www.w3.org/2000/svg" viewBox="-14866 -4480 40 40"><defs><style>.a{fill:#eee}.b{fill:#bbb}</style></defs><g transform="translate(-14914 -4600)"><circle class="a" cx="20" cy="20" r="20" transform="translate(48 120)"/><path class="b" d="M53 153.23v-1.562a6.688 6.688 0 0 1 6.663-6.669h16.674A6.688 6.688 0 0 1 83 151.668v1.56a20 20 0 0 1-30 0zm6.663-18.233A8.25 8.25 0 0 1 68 126.668a8.251 8.251 0 0 1 8.337 8.329A8.258 8.258 0 0 1 68 143.334a8.257 8.257 0 0 1-8.337-8.337z"/></g></svg>