<svg xmlns="http://www.w3.org/2000/svg" xmlns:xlink="http://www.w3.org/1999/xlink" width="128" height="128" version="1"><defs><linearGradient id="A"><stop offset="0" stop-color="#171717"/><stop offset="1" stop-color="#171717" stop-opacity="0"/></linearGradient><linearGradient id="y"><stop offset="0" stop-color="#a2a2a2"/><stop offset="1" stop-color="#e0e0e0"/></linearGradient><linearGradient id="z"><stop offset="0" stop-color="#f9f9f9"/><stop offset="1" stop-color="#f9f9f9" stop-opacity="0"/></linearGradient><linearGradient id="B"><stop offset="0" stop-color="#f9f9f9"/><stop offset="1" stop-color="#d1d1d1"/></linearGradient><linearGradient id="x"><stop offset="0" stop-color="#fff"/><stop offset="1" stop-color="#fff" stop-opacity="0"/></linearGradient><linearGradient id="w"><stop offset="0" stop-color="#fff"/><stop offset="1" stop-color="#fff" stop-opacity="0"/></linearGradient><linearGradient id="v"><stop offset="0" stop-color="#fff"/><stop offset="1" stop-color="#fff" stop-opacity="0"/></linearGradient><linearGradient id="u"><stop offset="0" stop-color="#fff"/><stop offset="1" stop-color="#888a85" stop-opacity="0"/></linearGradient><linearGradient id="t"><stop offset="0" stop-color="#fff"/><stop offset="1" stop-color="#3e3e3e" stop-opacity="0"/></linearGradient><linearGradient id="s"><stop offset="0"/><stop offset="1" stop-opacity="0"/></linearGradient><linearGradient id="r"><stop offset="0" stop-color="#fff"/><stop offset="1" stop-color="#3e3e3e" stop-opacity="0"/></linearGradient><linearGradient id="q"><stop offset="0" stop-color="#fff"/><stop offset="1" stop-color="#fff" stop-opacity="0"/></linearGradient><linearGradient id="p"><stop offset="0"/><stop offset="1" stop-opacity="0"/></linearGradient><linearGradient id="k"><stop offset="0"/><stop offset=".148" stop-opacity="0"/><stop offset=".424" stop-opacity=".396"/><stop offset=".574" stop-opacity=".791"/><stop offset=".787" stop-opacity=".094"/><stop offset="1" stop-opacity="0"/></linearGradient><linearGradient id="j"><stop offset="0"/><stop offset="1" stop-opacity="0"/></linearGradient><linearGradient id="m"><stop offset="0" stop-color="#fff"/><stop offset=".319" stop-color="#fff" stop-opacity="0"/><stop offset="1" stop-color="#fff" stop-opacity="0"/></linearGradient><linearGradient id="l"><stop offset="0"/><stop offset="1" stop-opacity="0"/></linearGradient><linearGradient id="o"><stop offset="0"/><stop offset="1" stop-opacity="0"/></linearGradient><linearGradient id="n"><stop offset="0" stop-color="#fff"/><stop offset="1" stop-color="#fff" stop-opacity="0"/></linearGradient><linearGradient id="i"><stop offset="0" stop-color="#fff"/><stop offset="1" stop-color="#fff" stop-opacity="0"/></linearGradient><linearGradient id="h"><stop offset="0" stop-color="#111"/><stop offset=".143" stop-color="#6e6e70"/><stop offset=".571" stop-color="#101010"/><stop offset="1" stop-color="#0d0d0d"/></linearGradient><linearGradient id="g"><stop offset="0" stop-color="#e2dcdc"/><stop offset=".391" stop-color="#fff"/><stop offset=".827" stop-color="#dfd9df"/><stop offset="1" stop-color="#c3c3c3"/></linearGradient><linearGradient id="f"><stop offset="0"/><stop offset="1" stop-color="#2a2a2a"/></linearGradient><linearGradient id="e"><stop offset="0"/><stop offset="1" stop-opacity="0"/></linearGradient><linearGradient id="a"><stop offset="0" stop-color="#323232"/><stop offset=".077" stop-color="#dfe1e1"/><stop offset=".5" stop-color="#e2dcdc"/><stop offset=".782" stop-color="#fff"/><stop offset=".901" stop-color="#dfd9df"/><stop offset="1" stop-color="#3a3a3a"/></linearGradient><linearGradient id="d"><stop offset="0"/><stop offset="1" stop-opacity="0"/></linearGradient><linearGradient id="c"><stop offset="0" stop-color="#020202"/><stop offset="1" stop-color="#020202" stop-opacity="0"/></linearGradient><linearGradient id="b"><stop offset="0"/><stop offset=".119" stop-color="#141414"/><stop offset=".176" stop-color="#282828"/><stop offset=".509" stop-color="#363636"/><stop offset=".843" stop-color="#303030"/><stop offset=".881" stop-color="#141414"/><stop offset="1"/></linearGradient><radialGradient xlink:href="#p" id="C" cx="81.563" cy="151.977" fx="81.922" fy="156.54" r="80.225" gradientTransform="matrix(1.22246 0 0 .13333 -18.145 131.714)" gradientUnits="userSpaceOnUse"/><linearGradient xlink:href="#y" id="D" gradientUnits="userSpaceOnUse" gradientTransform="matrix(1.43567 0 0 1.43567 -52.809 -23.006)" x1="98.853" y1="49.884" x2="95.165" y2="96.644"/><radialGradient xlink:href="#z" id="E" gradientUnits="userSpaceOnUse" gradientTransform="matrix(3.5754 0 0 6.29725 322.234 -134.861)" cx="-56.592" cy="33.919" fx="-56.712" fy="31.899" r="8.5"/><radialGradient xlink:href="#A" id="G" gradientUnits="userSpaceOnUse" gradientTransform="matrix(1.43567 0 0 1.79256 -52.809 -49.674)" cx="100.572" cy="72.539" fx="100.572" fy="72.539" r="17.498"/><radialGradient xlink:href="#B" id="H" gradientUnits="userSpaceOnUse" gradientTransform="matrix(3.18396 0 0 4.32427 313.471 -67.086)" cx="-68.375" cy="34.719" fx="-68.375" fy="34.719" r="11.063"/><radialGradient xlink:href="#z" id="F" gradientUnits="userSpaceOnUse" gradientTransform="matrix(.44446 .44446 -1.29637 1.29639 192.524 112.58)" cx="-190.909" cy="65.022" fx="-190.909" fy="65.022" r="12.268"/></defs><path d="M179.635 151.977a98.073 98.073 0 1 1-196.145 0 98.073 98.073 0 1 1 196.145 0z" transform="matrix(-.62108 0 0 .56067 114.809 37.217)" opacity=".221" fill="url(#C)"/><path d="M-228.918-67.272v-2.794 2.794zM65.69-129.463v-2.794 2.794z" fill="#fff" fill-opacity=".757"/><path d="M-52.477-94.134a9.648 9.648 0 0 0-9.656 9.656v8.375h-48.25c-5.34 0-9.657 4.286-9.657 9.625v40.75c0 5.34 4.317 9.625 9.657 9.625H-13.852a9.595 9.595 0 0 0 9.625-9.625v-58.75c0-5.34-4.286-9.656-9.625-9.656h-38.625z" opacity=".061" fill="none"/><path d="M-91.317-199.098v-2.794 2.794zM-210.82-285.728v-2.795 2.795zM35.772-219.973v-2.794 2.794zM-56.853-146.08v-1.526 1.527zM-308.402-303.423v-2.794 2.794z" fill="#fff" fill-opacity=".757"/><path d="M66.133 3.067c-4.71 0-8.438 3.729-8.438 8.438v43.117h-28.25c-4.71 0-8.568 3.729-8.568 8.438v46.325c0 4.71 3.858 8.438 8.568 8.438h74.903c4.71 0 8.438-3.728 8.438-8.438V11.506c0-4.71-3.729-8.439-8.438-8.439H66.133z" opacity=".094" fill="none" stroke="#000" stroke-width="6.000202399999999" stroke-linecap="square" stroke-linejoin="round" stroke-dashoffset="4"/><path d="M66.133 2.667c-4.71 0-8.438 3.729-8.438 8.438v43.117h-28.25c-4.71 0-8.568 3.729-8.568 8.438v46.325c0 4.71 3.858 8.438 8.568 8.438h74.903c4.71 0 8.438-3.728 8.438-8.438V11.106c0-4.71-3.729-8.439-8.438-8.439H66.133z" opacity=".156" fill="none" stroke="#000" stroke-width="4.000744709999999" stroke-linecap="square" stroke-linejoin="round" stroke-dashoffset="4"/><path d="M66.133 2.567c-4.71 0-8.438 3.729-8.438 8.438v43.117h-28.25c-4.71 0-8.568 3.729-8.568 8.438v46.325c0 4.71 3.858 8.438 8.568 8.438h74.903c4.71 0 8.438-3.728 8.438-8.438V11.006c0-4.71-3.729-8.439-8.438-8.439H66.133z" opacity=".209" fill="none" stroke="#000" stroke-width="1.9994576899999998" stroke-linecap="square" stroke-linejoin="round" stroke-dashoffset="4"/><path d="M66.133 2.367c-4.71 0-8.438 3.729-8.438 8.438v43.117h-28.25c-4.71 0-8.568 3.729-8.568 8.438v46.325c0 4.71 3.858 8.438 8.568 8.438h74.903c4.71 0 8.438-3.728 8.438-8.438V10.806c0-4.71-3.729-8.439-8.438-8.439H66.133z" opacity=".291" fill="none" stroke="#000" stroke-width="1.00064351" stroke-linecap="square" stroke-linejoin="round" stroke-dashoffset="4"/><path d="M95.604 52.909a4.578 4.578 0 0 0-4.612 4.612v23.57H75.549c-2.575 0-4.684 2.039-4.684 4.613v25.323c0 2.575 2.11 4.613 4.684 4.613h40.946a4.578 4.578 0 0 0 4.612-4.613V57.522a4.578 4.578 0 0 0-4.612-4.613h-20.89z" fill="url(#D)" stroke="#2f2f2f" stroke-width=".208" stroke-linecap="square" stroke-linejoin="round" stroke-dashoffset="4" transform="matrix(1.82933 0 0 1.82933 -108.76 -94.62)"/><path d="M120.66 55.532c-16.8 8.72-34.362 17.853-34.362 17.853l33.018 41.272a4.602 4.602 0 0 0 1.791-3.647V57.516c0-.719-.163-1.381-.448-1.984z" fill="url(#E)" transform="matrix(1.82933 0 0 1.82933 -108.76 -94.62)"/><path d="M20.875 90.469V108.5c0 4.71 3.853 8.438 8.563 8.438h12.5V92.53c0-1.133-.898-2.062-2.032-2.062H20.875z" fill="url(#F)"/><path d="M95.604 52.909a4.578 4.578 0 0 0-4.612 4.612v23.57H75.549c-2.575 0-4.684 2.039-4.684 4.613.229 25.529 33.494 22.9 50.242 23.583V57.52a4.578 4.578 0 0 0-4.612-4.612h-20.89z" opacity=".508" fill="url(#G)" transform="matrix(1.82933 0 0 1.82933 -108.76 -94.62)"/><path d="M97.56 55.482a4.128 4.128 0 0 0-4.16 4.16v23.817H78.2c-2.32 0-4.222 1.838-4.222 4.16v19.552c0 2.321 1.901 4.159 4.223 4.159h35.055a4.128 4.128 0 0 0 4.159-4.16V59.642a4.128 4.128 0 0 0-4.16-4.159H97.56z" fill="url(#H)" stroke="#fff" stroke-width=".502" stroke-linecap="square" stroke-linejoin="round" stroke-dashoffset="4" transform="matrix(1.82933 0 0 1.82933 -108.76 -94.62)"/><path d="M90.06 54.479v36.996H68.025l9.67-6.206-9.6 6.206 9.594 6.096" fill="none" stroke="#000" stroke-width="2.91229336" stroke-linecap="round" stroke-linejoin="round"/></svg>