<svg xmlns="http://www.w3.org/2000/svg" viewBox="0 0 227.5 75.8"><path d="M94.1 23.6h7.8v31h-7.7V39.4c-.3.1-.4.2-.5.3-2.3 1.8-4.6 3.5-6.9 5.2-.6.4-.8.9-.7 1.6v8h-7.8v-31h7.8v14.4c.6-.5 1.1-.8 1.6-1.2 2-1.6 4.1-3.1 6.1-4.7.3-.2.5-.6.5-1v-6.7c-.2-.1-.2-.4-.2-.7zm-18 24.6v6.4h-28c0-2.1.1-6.4.1-6.3 1 .1 1.2-.4 1.5-1.2 2-7.6 4.1-15.1 6.2-22.7.2-.7.5-.8 1.1-.8h10.2c.7 0 .9.2 1.1.9 2.1 7.6 4.2 15.2 6.2 22.8.2.8.7 1.1 1.6.9zm-9.2 0v-.4C65.4 41.9 64 35.9 62.6 30c-.1-.2-.4-.4-.6-.6-.2.2-.5.4-.5.6-1.1 4.4-2.1 8.8-3.2 13.2-.4 1.6-.8 3.3-1.2 4.9 3.4.1 6.5.1 9.8.1zM22.5 39c-.1-3.3.4-6.5 1.9-9.6 2.1-4.4 6.6-6.8 11.4-6.8 6.5.1 11 4.5 12.3 11.1.8 4.2.8 8.4-.4 12.5-1.4 4.6-4.1 7.9-8.9 9-7.1 1.6-13.1-1.7-15.3-9-.8-2.3-1-4.7-1-7.2zm17.8-2.3c-.1-2-.2-4.1-1.2-5.9-1.5-2.7-5.5-2.7-7 0-.5 1-1 2.2-1 3.3-.2 3.1-.2 6.3-.1 9.4 0 1.2.4 2.5.9 3.6 1.4 2.9 5.3 3.2 7.2.5.4-.6.8-1.4.9-2.1.1-2.3.3-8.2.3-8.8zm108.5 5.6h8.1c-.1 2.4-.6 4.6-1.6 6.7-1.9 4.2-5.4 6.2-9.8 6.5-3.1.2-6.1-.3-8.7-2.1-2.5-1.8-4-4.4-4.8-7.3-1.3-5-1.3-10.1.4-15.1 1.9-5.6 6.2-8.5 12.2-8.3 3 .1 5.8.9 8.1 3 2.3 2.2 3.3 4.9 3.7 8 .1.7.1 1.4.2 2.1-.4 0-.6 0-.9.1h-6.3c-.8 0-.9-.3-1-.9 0-.9-.1-1.9-.3-2.8-.4-1.8-1.9-3.2-3.5-3.3-2.1-.1-3.8.8-4.4 2.7-.4 1.1-.7 2.3-.7 3.5-.2 3.3-.3 6.6.2 9.8.3 1.7 1 3.3 2.7 4.1 2.7 1.2 5.5-.6 6-3.7.2-1 .3-2 .4-3zm-27.5 0h8.1c0 1.8-.4 3.5-.9 5.2-2 6.1-6.9 8.4-12.6 8-6.3-.4-9.9-4.2-11.3-9.9-1.3-5.4-1.2-10.7.9-15.8 2-4.8 6.3-7.3 11.5-7.1 3 .1 5.8.8 8.1 2.9 2.4 2.2 3.4 5.1 3.9 8.2.1.6.1 1.3.2 2-.3 0-.5.1-.7.1h-6.6c-.6 0-.7-.2-.8-.8 0-1-.1-2-.3-3-.4-1.8-1.8-3.2-3.4-3.3-2.1-.2-3.8.7-4.5 2.6-.4 1.2-.7 2.4-.8 3.6-.2 3.3-.3 6.6.2 9.9.3 1.8 1.1 3.5 3 4.2 2.7 1 5.3-.8 5.7-3.9.2-1 .3-1.9.3-2.9zm37.1 12.3v-31h20.1v6.1h-12.3v6.2H178v6h-11.8v6.5h12.5v6.3c-6.8-.1-13.5-.1-20.3-.1zm46.3 0h-7.8V39.3c-.9.7-5.8 4.4-7.4 5.7-.5.4-.7.8-.7 1.4v8.2H181v-31h7.8V38c.8-.6 5.8-4.4 7.6-5.8.5-.3.6-.7.6-1.3v-4.8h7.8c-.1 10.5-.1 18.1-.1 28.5z"/><path d="M204.9 18.2c-.9 3.5-4.2 6.3-8.3 6.3-4.2 0-7.4-3-8.2-6.3h5c.2 0 .5.3.6.5.7 1.4 1.8 1.6 2.8 1.6.9 0 2-.2 2.7-1.6.1-.2.4-.5.7-.5h4.7z"/></svg>