<svg id="Layer_1" xmlns="http://www.w3.org/2000/svg" viewBox="0 0 28.3 28.3"><style>.st0,.st1,.st2,.st3,.st4,.st5,.st6{fill-rule:evenodd;clip-rule:evenodd;fill:#00c0f3}.st1,.st2,.st3,.st4,.st5,.st6{fill:#27aae1}.st2,.st3,.st4,.st5,.st6{fill:#0091d0}.st3,.st4,.st5,.st6{fill:#1b75bc}.st4,.st5,.st6{fill:#0061af}.st5,.st6{fill:#004fa3}.st6{fill:#293896}</style><path transform="rotate(-44.992 17.204 15.352)" class="st0" d="M15.8 13.9h2.9v2.9h-2.9z"/><path transform="rotate(-45.017 15.182 17.372)" class="st1" d="M13.8 15.9h2.9v2.9h-2.9z"/><path transform="rotate(-44.992 13.163 15.352)" class="st2" d="M11.7 13.9h2.9v2.9h-2.9z"/><path transform="rotate(-45.009 11.142 13.332)" class="st3" d="M9.7 11.9h2.9v2.9H9.7z"/><path transform="rotate(-45.001 13.162 11.311)" class="st4" d="M11.7 9.9h2.9v2.9h-2.9z"/><path transform="rotate(-45.001 15.183 9.29)" class="st5" d="M13.8 7.9h2.9v2.9h-2.9z"/><path transform="rotate(-45.001 17.204 7.27)" class="st6" d="M15.8 5.8h2.9v2.9h-2.9z"/><path transform="rotate(-45.001 19.225 9.291)" class="st5" d="M17.8 7.9h2.9v2.9h-2.9z"/><path transform="rotate(-44.992 21.244 11.311)" class="st4" d="M19.8 9.9h2.9v2.9h-2.9z"/><path transform="rotate(-45.001 23.265 13.332)" class="st3" d="M21.8 11.9h2.9v2.9h-2.9z"/><path transform="rotate(-45.009 25.285 15.353)" class="st2" d="M23.9 13.9h2.9v2.9h-2.9z"/><path transform="rotate(-44.992 23.266 17.373)" class="st1" d="M21.8 15.9h2.9v2.9h-2.9z"/><path transform="rotate(-45.009 21.244 19.393)" class="st0" d="M19.8 18h2.9v2.9h-2.9z"/><path transform="rotate(-45.001 19.225 21.414)" class="st1" d="M17.8 20h2.9v2.9h-2.9z"/><path transform="rotate(-45.001 17.203 23.434)" class="st2" d="M15.8 22h2.9v2.9h-2.9z"/><path transform="rotate(-45.001 15.183 25.455)" class="st3" d="M13.8 24h2.9v2.9h-2.9z"/><path transform="rotate(-45.001 13.162 23.434)" class="st4" d="M11.7 22h2.9v2.9h-2.9z"/><path transform="rotate(-45.001 11.142 21.413)" class="st5" d="M9.7 20h2.9v2.9H9.7z"/><path transform="rotate(-44.984 9.122 19.394)" class="st6" d="M7.7 18h2.9v2.9H7.7z"/><path transform="rotate(-45.017 7.1 17.372)" class="st5" d="M5.7 15.9h2.9v2.9H5.7z"/><path transform="rotate(-45.001 5.08 15.352)" class="st3" d="M3.7 13.9h2.9v2.9H3.7z"/><path transform="rotate(-45.001 3.06 13.332)" class="st2" d="M1.6 11.9h2.9v2.9H1.6z"/><path transform="rotate(-45.009 5.08 11.31)" class="st1" d="M3.7 9.9h2.9v2.9H3.7z"/><path transform="rotate(-44.992 7.102 9.291)" class="st0" d="M5.7 7.9h2.9v2.9H5.7z"/><path transform="rotate(-44.992 9.122 7.27)" class="st1" d="M7.7 5.8h2.9v2.9H7.7z"/><path transform="rotate(-44.992 11.142 5.25)" class="st2" d="M9.7 3.8h2.9v2.9H9.7z"/><path class="st3" d="M11.1 3.2l2.1 2 2-2L13.5.9z"/></svg>