<svg id="Layer_1" xmlns="http://www.w3.org/2000/svg" viewBox="0 0 28.3 28.3"><style>.st0{fill:#173159}.st1{fill:#0e4d8c}.st2{fill:#3372b9}.st3{fill:#80b8e4}.st4{fill:#4791ce}</style><path transform="rotate(-45.009 16.999 15.332)" class="st0" d="M15.6 13.9h2.9v2.9h-2.9z"/><path transform="rotate(-44.984 14.98 17.353)" class="st1" d="M13.5 15.9h2.9v2.9h-2.9z"/><path transform="rotate(-45.009 12.957 15.332)" class="st2" d="M11.5 13.9h2.9v2.9h-2.9z"/><path transform="rotate(-45.009 10.937 13.311)" class="st2" d="M9.5 11.9h2.9v2.9H9.5z"/><path transform="rotate(-45.001 12.957 11.291)" class="st2" d="M11.5 9.9h2.9v2.9h-2.9z"/><path transform="rotate(-45.001 14.978 9.27)" class="st1" d="M13.5 7.8h2.9v2.9h-2.9z"/><path transform="rotate(-45.009 16.998 7.25)" class="st0" d="M15.6 5.8h2.9v2.9h-2.9z"/><path transform="rotate(-45.001 19.019 9.27)" class="st1" d="M17.6 7.8h2.9v2.9h-2.9z"/><path transform="rotate(-45.009 21.039 11.291)" class="st2" d="M19.6 9.9h2.9v2.9h-2.9z"/><path transform="rotate(-45.001 23.06 13.312)" class="st3" d="M21.6 11.9h2.9v2.9h-2.9z"/><path transform="rotate(-45.009 25.08 15.332)" class="st3" d="M23.7 13.9h2.9v2.9h-2.9z"/><path transform="rotate(-44.992 23.06 17.353)" class="st3" d="M21.6 15.9h2.9v2.9h-2.9z"/><path transform="rotate(-45.009 21.039 19.373)" class="st2" d="M19.6 17.9h2.9v2.9h-2.9z"/><path transform="rotate(-45.001 19.02 21.394)" class="st1" d="M17.6 20h2.9v2.9h-2.9z"/><path transform="rotate(-45.001 16.999 23.414)" class="st0" d="M15.6 22h2.9v2.9h-2.9z"/><path transform="rotate(-45.001 14.979 25.435)" class="st2" d="M13.5 24h2.9v2.9h-2.9z"/><path transform="rotate(-45.001 12.958 23.414)" class="st2" d="M11.5 22h2.9v2.9h-2.9z"/><path transform="rotate(-45.009 10.937 21.393)" class="st2" d="M9.5 20h2.9v2.9H9.5z"/><path transform="rotate(-44.992 8.917 19.373)" class="st4" d="M7.5 17.9h2.9v2.9H7.5z"/><path transform="rotate(-45.009 6.896 17.352)" class="st4" d="M5.5 15.9h2.9v2.9H5.5z"/><path transform="rotate(-44.984 4.877 15.333)" class="st3" d="M3.4 13.9h2.9v2.9H3.4z"/><path transform="rotate(-45.009 2.855 13.312)" class="st3" d="M1.4 11.9h2.9v2.9H1.4z"/><path transform="rotate(-44.992 4.877 11.292)" class="st3" d="M3.4 9.9h2.9v2.9H3.4z"/><path transform="rotate(-44.992 6.897 9.27)" class="st4" d="M5.5 7.8h2.9v2.9H5.5z"/><path transform="rotate(-44.992 8.917 7.25)" class="st4" d="M7.5 5.8h2.9v2.9H7.5z"/><path transform="rotate(-45.009 10.937 5.23)" class="st2" d="M9.5 3.8h2.9v2.9H9.5z"/><path class="st2" d="M15 3.2L13.3.9l-2.4 2.3 2.1 2z"/></svg>