<svg viewBox="0 0 500 500" xmlns="http://www.w3.org/2000/svg"><path clip-rule="evenodd" d="M431.711 368.112c20.078 0 36.34-16.267 36.34-36.342V104.632c0-20.079-16.262-36.343-36.34-36.343H231.83c-20.079 0-36.343 16.264-36.343 36.343v36.342h-55.24c-12.173 0-22.98 4.818-30.806 12.536l-45.959 46.155c-8.269 8.18-13.362 19.625-13.362 32.164v91.306c-10.362 2.094-18.17 11.269-18.17 22.26 0 12.537 10.177 22.717 22.713 22.717H86.64c2.272 35.526 31.887 63.599 67.962 63.599 36.077 0 65.693-28.072 67.964-63.599h63.867c2.357 35.526 31.977 63.599 68.05 63.599 36.069 0 65.692-28.072 67.963-63.599h9.265zm-254.394-4.543c0 12.535-10.177 22.715-22.715 22.715-12.536 0-22.713-10.18-22.713-22.715 0-12.537 10.177-22.717 22.713-22.717 12.538.001 22.715 10.18 22.715 22.717zm199.881 0c0 12.535-10.18 22.715-22.716 22.715s-22.711-10.18-22.711-22.715c0-12.537 10.175-22.717 22.711-22.717s22.716 10.18 22.716 22.717zM95.548 259.086v-22.98c0-9.086 3.637-13.362 10.45-20.176l19.529-19.537c6.184-6.176 10.905-9.992 19.813-9.992h50.146v72.685H95.548z" /></svg>